<?xml version="1.0" encoding="UTF-8" standalone="no"?>

<svg
   version="1.1"
   width="52.235px"
   height="52.235px"
   viewBox="0 0 52.235 52.235"
   xmlns="http://www.w3.org/2000/svg"
   xmlns:svg="http://www.w3.org/2000/svg">
<path
   d="m 44.617444,7.6724584 c -10.186003,-10.212 -26.720003,-10.237 -36.9340023,-0.053 -10.2140004,10.1849996 -10.2380004,26.7229996 -0.056,36.9369996 10.1859993,10.215 26.7279993,10.236 36.9370023,0.051 10.214,-10.184 10.24,-26.718 0.053,-36.9349996 z"
   id="path1-33"
   style="fill:CurrentColor" />
<path
   d="m 12.723803,12.643126 v 26.242 l 5.000001,3 v -2 l -2,-3 v -22 l 2,-3 V 9.8851274 Z m 12.000001,20.242 h 7 c 1.108,0 2,0.892 2,2 0,1.108 -0.892,2 -2,2 h -7 c -1.108,0 -2,-0.892 -2,-2 0,-1.108 0.892,-2 2,-2 z m 9,-8 h 9 c 1.108,0 2,0.892 2,2 0,1.108 -0.892,2 -2,2 h -9 c -1.108,0 -2,-0.892 -2,-2 0,-1.108 0.892,-2 2,-2 z m -14,-9 h 16 c 1.108,0 2,0.892 2,2 v 2 c 0,1.108 -0.892,2 -2,2 h -16 c -1.108,0 -2,-0.892 -2,-2 v -2 c 0,-1.108 0.892,-2 2,-2 z"
   fill="#669999"
   id="path1-2"
   style="fill:#ffffff" /></svg>
