<?xml version="1.0" encoding="UTF-8"?>
<svg version="1.1" width="32" height="32" viewBox="0 0 32 32" xmlns="http://www.w3.org/2000/svg">
 <path d="M5 0a2 2 0 0 0-2 2v28a2 2 0 0 0 2 2h22a2 2 0 0 0 2-2V10h-6c-2.185 0-4-1.815-4-4V0zm16 0v6a2 2 0 0 0 2 2h6V6l-1.787-1.787L23 0zm-3.053 13A7.56 7.56 0 0 1 23 14.842l-1.85 2.13c-1.785-1.55-4.565-1.518-6.31.07a4.5 4.5 0 0 0-.822.999h4.859v1.41h-5.394c-.042.233-.06.47-.06.707h4.749v1.41h-4.486c.174.464.431.91.783 1.318 1.525 1.769 4.275 2.123 6.252.782l1.586 2.336c-3.16 2.144-7.493 1.602-9.975-1.276a6.95 6.95 0 0 1-1.553-3.16H9v-1.41h1.637c0-.236.013-.472.037-.707H9v-1.41h1.967a7.029 7.029 0 0 1 1.975-3.084A7.549 7.549 0 0 1 17.947 13z" fill="#62686a"/>
</svg>
