<?xml version="1.0" encoding="utf-8"?>
<!-- Generator: Adobe Illustrator 16.2.1, SVG Export Plug-In . SVG Version: 6.00 Build 0)  -->
<!DOCTYPE svg PUBLIC "-//W3C//DTD SVG 1.1//EN" "http://www.w3.org/Graphics/SVG/1.1/DTD/svg11.dtd">
<svg version="1.1" id="Ebene_1" xmlns="http://www.w3.org/2000/svg" xmlns:xlink="http://www.w3.org/1999/xlink" x="0px" y="0px"
	 width="28.347px" height="28.347px" viewBox="0 0 28.347 28.347" enable-background="new 0 0 28.347 28.347" xml:space="preserve">
<path fill-rule="evenodd" clip-rule="evenodd" fill="#ECEDED" d="M0,0v28.347h28.348V0H0z M5.307,25.165L1.881,24.31V3.749
	l3.426-0.856v0.856L3.594,5.462v17.134l1.713,1.714V25.165z M5.307,8.889V8.032c0-0.946,0.768-1.713,1.715-1.713h11.993
	c0.945,0,1.713,0.767,1.713,1.713v0.856c0,0.946-0.768,1.714-1.713,1.714H7.021C6.074,10.603,5.307,9.835,5.307,8.889z
	 M16.444,22.596h-5.141c-0.946,0-1.713-0.767-1.713-1.713s0.767-1.714,1.713-1.714h5.141c0.946,0,1.714,0.768,1.714,1.714
	S17.391,22.596,16.444,22.596z M25.011,16.599h-6.853c-0.947,0-1.714-0.767-1.714-1.713c0-0.947,0.767-1.714,1.714-1.714h6.853
	c0.945,0,1.714,0.767,1.714,1.714C26.725,15.832,25.956,16.599,25.011,16.599z"/>
</svg>
